<?xml version="1.0" standalone="no"?>
<!DOCTYPE svg PUBLIC "-//W3C//DTD SVG 20010904//EN"
 "http://www.w3.org/TR/2001/REC-SVG-20010904/DTD/svg10.dtd">
<svg version="1.0" xmlns="http://www.w3.org/2000/svg"
 width="512.000000pt" height="512.000000pt" viewBox="0 0 512.000000 512.000000"
 preserveAspectRatio="xMidYMid meet">

<g transform="translate(0.000000,512.000000) scale(0.100000,-0.100000)"
fill="#000000" stroke="none">
<path d="M0 2560 l0 -2560 2560 0 2560 0 0 2560 0 2560 -2560 0 -2560 0 0
-2560z m2105 1688 c-4 -24 -20 -104 -37 -178 l-30 -134 38 -30 c146 -114 302
-298 379 -447 73 -142 96 -225 102 -369 7 -151 -14 -252 -73 -359 -56 -100
-171 -209 -275 -260 -137 -67 -224 -84 -403 -79 -158 5 -227 17 -400 70 l-99
30 -76 -36 c-151 -71 -332 -95 -438 -60 -77 26 -83 35 -83 128 0 80 0 81 33
103 105 70 253 69 542 -4 l100 -25 47 53 c100 114 202 319 292 591 59 177 160
537 171 609 l7 45 -78 53 c-173 117 -411 209 -584 227 -128 13 -248 -35 -285
-112 -29 -59 -26 -139 7 -195 36 -60 130 -147 201 -184 31 -17 57 -32 57 -35
0 -3 -17 -23 -38 -43 l-38 -37 -49 34 c-71 47 -142 127 -173 194 -37 78 -39
205 -4 269 128 241 502 242 917 3 57 -32 91 -47 95 -39 4 6 13 43 19 82 7 40
15 82 17 95 3 17 22 31 67 52 34 16 66 29 70 29 5 1 6 -18 2 -41z m1338 -1042
c141 -58 140 -271 0 -494 -95 -150 -280 -348 -413 -442 l-35 -25 88 -12 c48
-7 102 -20 120 -29 59 -30 117 -85 145 -137 24 -47 27 -62 27 -157 0 -83 -5
-117 -23 -164 -35 -96 -82 -165 -167 -251 -90 -89 -158 -134 -267 -173 -66
-24 -87 -27 -213 -27 -111 0 -150 4 -187 18 -71 27 -76 39 -39 86 l32 40 44
-33 c80 -62 182 -83 286 -61 163 33 306 174 371 364 33 96 33 256 0 323 -53
107 -133 153 -257 146 l-77 -3 6 29 c4 17 12 34 19 37 6 4 44 30 82 57 195
138 376 357 435 527 29 84 29 182 -1 235 -31 54 -93 85 -156 76 -111 -15 -264
-114 -424 -275 l-97 -97 -12 -75 c-60 -371 -232 -965 -345 -1194 -74 -150
-117 -195 -185 -195 -74 0 -101 79 -82 243 40 337 214 759 434 1047 l57 76 15
114 c8 63 18 154 22 201 l7 86 64 32 c36 18 68 30 71 27 3 -3 -3 -65 -12 -137
-10 -72 -15 -133 -12 -136 3 -4 36 23 73 59 248 237 477 348 606 294z m827
-531 c21 -23 23 -30 16 -102 -4 -43 -55 -303 -114 -578 l-108 -500 48 -3 c40
-3 48 -6 48 -23 0 -16 -7 -19 -53 -19 l-52 0 -63 -297 c-35 -164 -66 -306 -69
-316 -4 -14 -13 -17 -45 -15 -39 3 -40 4 -69 76 -35 88 -93 189 -150 263 -91
117 -241 252 -258 233 -5 -5 -34 -45 -66 -89 -213 -291 -559 -511 -850 -541
l-65 -7 0 49 0 49 78 3 c318 11 573 164 816 491 128 172 238 360 495 850 208
393 293 499 402 501 25 0 42 -7 59 -25z"/>
<path d="M2006 3798 c-3 -7 -21 -73 -41 -146 -84 -310 -180 -562 -280 -742
-63 -112 -94 -156 -182 -256 -36 -42 -63 -77 -61 -79 9 -9 274 -76 352 -90
114 -19 256 -19 331 0 163 43 298 173 357 343 19 56 23 87 23 187 -1 108 -4
129 -32 208 -57 163 -196 358 -359 503 -94 83 -103 89 -108 72z"/>
<path d="M787 2575 c-44 -15 -40 -12 -56 -43 -17 -32 4 -70 54 -96 54 -28 176
-33 270 -11 80 18 210 75 198 86 -12 10 -206 57 -288 69 -93 13 -132 12 -178
-5z"/>
<path d="M2535 2506 c-203 -284 -382 -761 -387 -1029 -2 -61 1 -72 21 -88 57
-47 116 54 226 389 91 277 203 730 193 780 -2 11 -20 -7 -53 -52z"/>
<path d="M4061 2545 c-39 -45 -113 -172 -236 -405 -96 -182 -283 -524 -332
-607 l-25 -43 236 0 236 0 5 23 c47 199 214 1035 209 1049 -10 31 -58 23 -93
-17z"/>
<path d="M3440 1436 c8 -7 48 -42 88 -76 86 -73 184 -185 249 -286 27 -40 51
-74 54 -74 3 0 25 91 48 203 24 111 45 212 48 225 l5 22 -253 0 c-216 0 -251
-2 -239 -14z"/>
</g>
</svg>
